<?xml version="1.0" encoding="utf-8"?>
<!-- Generator: Adobe Illustrator 15.1.0, SVG Export Plug-In . SVG Version: 6.00 Build 0)  -->
<!DOCTYPE svg PUBLIC "-//W3C//DTD SVG 1.1//EN" "http://www.w3.org/Graphics/SVG/1.1/DTD/svg11.dtd">
<svg version="1.1" id="レイヤー_1" xmlns="http://www.w3.org/2000/svg" xmlns:xlink="http://www.w3.org/1999/xlink" x="0px"
	 y="0px" width="110.551px" height="110.551px" viewBox="0 0 110.551 110.551" enable-background="new 0 0 110.551 110.551"
	 xml:space="preserve">
<rect fill="#FFFFFF" width="110.551" height="110.551" fill-opacity="0"/>
<g>
	<polygon fill="#AAABAB" points="55.274,6.178 34.016,18.453 34.016,18.453 55.274,30.728 55.274,30.728 	"/>
	<polygon fill="#AAABAB" points="34.016,18.453 12.756,30.728 34.016,43.002 34.016,18.453 	"/>
	<polygon fill="#AAABAB" points="34.016,43.002 55.274,30.728 34.016,18.453 	"/>
	<polygon fill="#C9CACA" points="55.274,6.179 55.274,30.728 55.274,30.728 76.535,18.453 	"/>
	<polygon fill="#C9CACA" points="76.535,18.453 55.274,30.728 76.535,43.002 76.535,18.453 	"/>
	<polygon fill="#C9CACA" points="76.535,43.002 97.795,30.728 76.535,18.453 	"/>
	<polygon fill="#666464" points="34.016,43.002 34.016,43.002 12.756,30.728 12.756,55.277 	"/>
	<polygon fill="#666464" points="34.016,43.002 12.756,55.277 12.756,55.277 34.016,67.55 34.016,67.55 	"/>
	<polygon fill="#666464" points="12.756,79.824 34.016,67.55 12.756,55.277 	"/>
	<polygon fill="#E6E6E6" points="55.274,55.277 55.274,30.728 34.016,43.002 34.016,43.002 55.274,55.277 	"/>
	<polygon fill="#E6E6E6" points="76.535,43.002 76.535,43.002 55.274,30.728 55.274,55.277 	"/>
	<polygon fill="#AAABAB" points="34.016,43.002 34.016,67.55 34.016,67.55 55.274,55.277 	"/>
	<polygon fill="#AAABAB" points="76.535,43.002 55.274,55.277 55.274,55.277 76.535,67.55 76.535,67.55 	"/>
	<polygon fill="#666464" points="55.274,55.277 34.016,67.55 55.274,79.824 55.274,55.277 	"/>
	<polygon fill="#666464" points="55.274,79.824 76.535,67.55 55.274,55.277 	"/>
	<polygon fill="#898989" points="97.795,55.277 97.795,30.728 76.535,43.002 76.535,43.002 97.795,55.277 	"/>
	<polygon fill="#AAABAB" points="76.535,43.002 76.535,67.55 76.535,67.55 97.795,55.277 	"/>
	<polygon fill="#898989" points="97.795,55.277 76.535,67.55 97.795,79.824 97.795,55.277 	"/>
	<polygon fill="#3E3A39" points="34.016,92.1 34.016,67.55 12.756,79.824 12.756,79.824 34.016,92.1 	"/>
	<polygon fill="#3E3A39" points="55.274,79.824 55.274,79.824 34.016,67.55 34.016,92.1 	"/>
	<polygon fill="#3E3A39" points="55.274,79.824 34.016,92.1 34.016,92.1 55.274,104.372 55.274,104.372 	"/>
	<polygon fill="#3E3A39" points="76.535,92.1 76.535,67.55 55.274,79.824 55.274,79.824 76.535,92.1 	"/>
	<polygon fill="#3E3A39" points="97.795,79.824 97.795,79.824 76.535,67.55 76.535,92.1 	"/>
	<polygon fill="#3E3A39" points="55.274,79.824 55.274,104.372 55.274,104.372 76.535,92.1 	"/>
</g>
</svg>
